<?xml version="1.0" encoding="utf-8"?>
<!-- Generator: Adobe Illustrator 21.0.0, SVG Export Plug-In . SVG Version: 6.00 Build 0)  -->
<svg version="1.1" id="Layer_1" xmlns="http://www.w3.org/2000/svg" xmlns:xlink="http://www.w3.org/1999/xlink" x="0px" y="0px"
	 viewBox="0 0 99.9 66" style="enable-background:new 0 0 99.9 66;" xml:space="preserve">
<style type="text/css">
	.st0{fill:#232834;}
</style>
<g>
	<path class="st0" d="M83.3,46.9c-1.4,0.5-3,0.9-4.5,1.4c-18.6,5.8-37,11.6-55.6,17.5c-0.8,0.3-0.9,0.1-1.2-0.7
		c-2.1-5.9-4.3-11.7-6.5-17.7c-0.3-0.9-0.3-0.9,0.7-0.9h8.3c0.8,0,0.9-0.3,0.9-0.9v-5.8c0-1.3-0.1-1.2,1.1-1.2
		c2.9,0,5.8-0.3,8.6-1.3c2.5-0.9,4.5-2.4,5.7-4.9c1.8-4.3,0-8.8-4.2-10.7c-3-1.3-6.2-1.6-9.4-1.7H16.3c-0.7,0-0.8,0.3-0.8,0.8V45
		c0,0.3,0.1,0.5-0.1,0.9c-0.3-0.3-0.3-0.5-0.4-0.8C10,31.9,5,18.5,0.1,5.2C-0.2,4.4,0,4.3,0.8,4.3c6.5-0.4,12.9-0.7,19.4-1.1
		c20-1.2,40-2.2,59.9-3.4c0.9,0,1.3,0.1,1.7,1.1c5.9,13.3,11.9,26.6,17.9,39.8c0.3,0.7,0.3,0.9-0.5,1.2c-4.9,1.4-9.7,3-14.6,4.6
		c-0.7,0.3-0.8,0.1-0.8-0.5V21.2c0-0.7-0.1-0.9-0.9-0.9h-8.4c-0.7,0-0.8,0.1-0.8,0.8V46c0,0.7,0.3,0.8,0.8,0.8h8.8
		C83.3,46.8,83.3,46.9,83.3,46.9z M61.1,19.9c-4.1,0-7.9,0.5-11.5,2.8c-4.6,2.8-6.7,6.9-6.3,12.3c0.4,5.1,3.2,8.6,7.8,10.5
		c5.8,2.4,11.9,2.4,17.9,0.8c0.4-0.1,0.5-0.3,0.5-0.8V41c0-1.6,0-1.6-1.6-1.1c-2.9,0.9-5.8,1.3-8.8,0.5c-3.6-0.9-5.7-3.8-5.3-7.5
		c0.3-3.7,2.6-6.1,6.3-6.5c2.8-0.3,5.3,0.3,7.8,1.4c0.9,0.4,0.9,0.4,0.9-0.7v-5.3c0-0.7-0.3-0.8-0.8-1.1
		C65.8,20,63.5,19.9,61.1,19.9z M78.9,17.7h0.8c2.9-0.3,5.1-2.4,5.3-5c0.3-3.3-1.4-5.5-4.5-6.2c-0.9-0.1-1.8-0.3-2.6-0.1
		c-4.1,0.5-6.2,4.3-4.6,8C73.9,16.3,76.1,17.7,78.9,17.7z"/>
	<path class="st0" d="M25.2,29.5v-2.9c0-0.4,0-0.5,0.5-0.5c1.3,0,2.5,0,3.7,0.4c1.3,0.5,2.1,1.4,2.1,2.9s-0.7,2.6-2,3.2
		s-2.6,0.5-4,0.5c-0.4,0-0.4-0.3-0.4-0.7C25.2,31.5,25.2,30.6,25.2,29.5z"/>
</g>
</svg>
