<?xml version="1.0" encoding="UTF-8" standalone="no"?>
<svg width="163px" height="44px" viewBox="0 0 163 44" version="1.1" xmlns="http://www.w3.org/2000/svg" xmlns:xlink="http://www.w3.org/1999/xlink" xmlns:sketch="http://www.bohemiancoding.com/sketch/ns">
   
    <defs>
        <path id="path-1" d="M0.121999167,0.0326130452 L162.397158,0.0326130452 L162.397158,43.9460784 L0.121999167,43.9460784"></path>
    </defs>
    <g id="Page-1" stroke="none" stroke-width="1" fill="none" fill-rule="evenodd" sketch:type="MSPage">
        <g id="icons" sketch:type="MSArtboardGroup" transform="translate(-172.000000, -437.000000)">
            <g id="mastercard-moneysend" sketch:type="MSLayerGroup" transform="translate(172.000000, 437.000000)">
                <mask id="mask-2" sketch:name="Clip 2" fill="white">
                    <use xlink:href="#path-1"></use>
                </mask>
                <g id="Clip-2"></g>
                <path d="M22.0310163,16.6652661 L11.622454,33.1776586 L8.18817745,16.6652661 L4.46720284,16.6652661 L0,37.7883278 L3.06827906,37.7883278 L6.3541233,22.2420968 L9.6155677,37.7883278 L12.0657176,37.7883278 L21.8195511,22.4805797 L18.5113403,37.7883278 L21.6955186,37.7883278 L26.1627214,16.6652661 L22.0310163,16.6652661" id="Fill-1" fill="#232834" sketch:type="MSShapeGroup" mask="url(#mask-2)"></path>
                <path d="M37.3683449,28.5669893 C37.3683449,31.8384854 35.3614586,35.3688475 32.1203474,35.3688475 C29.7311971,35.3688475 28.661671,33.4141031 28.661671,31.4756653 C28.661671,28.0900235 30.3147598,24.4455157 33.9401683,24.4455157 C36.7725823,24.4455157 37.3683449,26.6876626 37.3683449,28.5669893 L37.3683449,28.5669893 Z M34.1679001,21.6835984 C29.1334012,21.6835984 25.4815594,25.6827731 25.4815594,31.1903011 C25.4815594,35.275085 28.1167414,38.1307648 31.8926157,38.1307648 C36.9088148,38.1307648 40.5504899,34.0969388 40.5504899,28.5384529 C40.5504899,24.3109869 38.1044066,21.6835984 34.1679001,21.6835984 L34.1679001,21.6835984 Z" id="Fill-4" fill="#232834" sketch:type="MSShapeGroup" mask="url(#mask-2)"></path>
                <path d="M50.5747548,21.6835984 C49.226664,21.6835984 47.8765399,22.185024 46.8009139,23.0329632 C46.8110805,22.9249325 46.8212471,22.8107868 46.833447,22.6946028 L46.8944466,22.0260354 L43.8709006,22.0260354 L43.8261675,22.5886104 C43.7733012,23.2367947 43.6696019,23.8177146 43.4947365,24.8246424 L40.8412546,37.7883278 L43.9623999,37.7883278 L45.4853562,30.4014731 C45.8513537,28.6118322 47.0611788,24.4455157 50.3775228,24.4455157 C52.1770105,24.4455157 52.555208,25.6338535 52.555208,26.6285514 C52.555208,27.5539466 52.4413421,28.1552496 52.2542767,29.0419168 L50.4527556,37.7883278 L53.573901,37.7883278 L55.2961226,29.6391432 C55.527921,28.5731042 55.7353196,27.5335634 55.7353196,26.5144058 C55.7353196,23.5792317 53.7101334,21.6835984 50.5747548,21.6835984" id="Fill-5" fill="#232834" sketch:type="MSShapeGroup" mask="url(#mask-2)"></path>
                <path d="M60.6803525,28.2693953 C61.2984816,26.2698079 62.9414037,24.4455157 65.2207548,24.4455157 C65.8937836,24.4455157 67.9413363,24.4455157 67.9413363,27.7679697 C67.9413363,27.9289966 67.9250697,28.0961385 67.9088032,28.2693953 L60.6803525,28.2693953 L60.6803525,28.2693953 Z M68.8420968,34.0520958 L67.9128698,34.447529 C66.8677436,34.8939201 65.6111522,35.3688475 63.9153638,35.3688475 C61.5709464,35.3688475 60.1150897,33.9216437 60.1150897,31.5898109 C60.1150897,31.4022859 60.123223,31.2147609 60.1354229,31.0313125 L70.6964841,31.0313125 L70.8042501,29.922469 C70.8754163,29.1968287 70.9506491,28.4467287 70.9506491,27.7129352 C70.9506491,23.9379752 68.8095637,21.6835984 65.2207548,21.6835984 C59.9483575,21.6835984 57.1037436,26.78754 57.1037436,31.5898109 C57.1037436,35.5645258 59.6880926,38.1307648 63.687632,38.1307648 C66.0361159,38.1307648 67.2235745,37.692527 68.219901,37.3235919 L68.5858985,37.1890631 L68.8420968,34.0520958 L68.8420968,34.0520958 Z" id="Fill-6" fill="#232834" sketch:type="MSShapeGroup" mask="url(#mask-2)"></path>
                <path d="M82.5182035,22.0260354 L76.4182451,33.2612295 L75.0904875,22.0260354 L71.9713754,22.0260354 L74.088061,37.0932623 L72.9453355,39.2538766 C72.7318369,39.7063826 71.936809,41.1861995 70.7371505,41.1861995 C70.275587,41.1861995 70.0966549,41.0577856 70.0010889,40.9640231 L69.2609606,40.2220763 L68.4313663,43.2285914 L68.8400635,43.4670743 C69.4134596,43.7993197 70.0417553,43.9460784 70.8794829,43.9460784 C73.3519993,43.9460784 74.5069248,42.3989971 75.3080527,40.8967587 L85.856914,22.0260354 L82.5182035,22.0260354" id="Fill-7" fill="#232834" sketch:type="MSShapeGroup" mask="url(#mask-2)"></path>
                <path d="M10.1259309,0.772521509 L6.21992421,7.93312325 L6.19145774,7.93312325 L5.52452896,0.772521509 L2.24275136,0.772521509 L0.142332362,10.7093087 L2.03128614,10.7093087 L3.84907373,2.48062975 L3.8775402,2.48062975 L4.67256811,10.7093087 L6.57575512,10.7093087 L11.0632912,2.48062975 L11.0917576,2.48062975 L9.21703709,10.7093087 L11.3194894,10.7093087 L13.4341416,0.772521509 L10.1259309,0.772521509" id="Fill-8" fill="#232834" sketch:type="MSShapeGroup" mask="url(#mask-2)"></path>
                <path d="M16.1892895,9.48631953 C15.7073928,9.48631953 15.2234628,9.2294918 15.2234628,8.71787465 C15.2234628,7.47857893 16.758619,7.32162865 17.681746,7.32162865 L18.3486748,7.32162865 C18.0497768,8.50385154 17.6105798,9.48631953 16.1892895,9.48631953 L16.1892895,9.48631953 Z M17.5109471,3.20830832 C16.6589863,3.20830832 15.8354919,3.36322029 15.0262308,3.64858443 L14.7557993,5.17120598 C15.5081275,4.81653912 16.3173886,4.60251601 17.1551162,4.60251601 C17.8240783,4.60251601 18.6191063,4.81653912 18.6191063,5.55644758 C18.6191063,5.77047069 18.6191063,5.9844938 18.5621733,6.18221038 L17.8952445,6.18221038 C16.1038901,6.18221038 13.4056752,6.36769708 13.4056752,8.78921569 C13.4056752,10.1406187 14.3450688,10.8805272 15.6646931,10.8805272 C16.7159192,10.8805272 17.3686148,10.4117147 18.0213103,9.58619698 L18.0497768,9.58619698 L17.8525448,10.7093087 L19.4568339,10.7093087 C19.6276327,9.32936925 20.3514944,6.45330632 20.3514944,5.47083834 C20.3514944,3.74846188 18.9729038,3.20830832 17.5109471,3.20830832 L17.5109471,3.20830832 Z" id="Fill-9" fill="#232834" sketch:type="MSShapeGroup" mask="url(#mask-2)"></path>
                <path d="M22.0411829,5.54217937 C22.0411829,7.37870148 24.511666,7.49284714 24.511666,8.67507003 C24.511666,9.27229642 23.8447373,9.48631953 23.2062749,9.48631953 C22.4661467,9.48631953 21.927317,9.21522359 21.3884873,8.91559124 L20.9757235,10.4402511 C21.6711188,10.7663816 22.4397135,10.8805272 23.2062749,10.8805272 C24.8390305,10.8805272 26.5002525,10.3118372 26.5002525,8.40397409 C26.5002525,6.6102566 24.0297693,6.26781963 24.0297693,5.34242447 C24.0297693,4.75946629 24.7393978,4.60251601 25.3066939,4.60251601 C25.8475569,4.60251601 26.3721533,4.75946629 26.8703166,4.94495298 L27.2810471,3.50590236 C26.6141183,3.33468387 25.9044899,3.20830832 25.2090946,3.20830832 C23.7024049,3.20830832 22.0411829,3.81980292 22.0411829,5.54217937" id="Fill-10" fill="#232834" sketch:type="MSShapeGroup" mask="url(#mask-2)"></path>
                <path d="M31.3436194,4.77373449 L33.0475411,4.77373449 L33.3464391,3.3774885 L31.6425174,3.3774885 L32.1101808,1.20056773 L30.0646615,1.86913515 L29.7393304,3.3774885 L28.3607398,3.3774885 L28.0618418,4.77373449 L29.4404324,4.77373449 L28.8995694,7.25028762 C28.7735036,7.83528411 28.6596377,8.38970588 28.6596377,8.95839586 C28.6596377,10.3689101 29.5685315,10.8805272 30.8596894,10.8805272 C31.1870538,10.8805272 31.5571179,10.7806498 31.8824491,10.7093087 L32.2098135,9.2294918 C31.9678485,9.32936925 31.6262508,9.40071028 31.2866865,9.40071028 C30.8596894,9.40071028 30.5628247,9.12961435 30.5628247,8.68933824 C30.5628247,8.40397409 30.6055244,8.14714636 30.6482241,7.97592787 L31.3436194,4.77373449" id="Fill-11" fill="#232834" sketch:type="MSShapeGroup" mask="url(#mask-2)"></path>
                <path d="M38.5863033,6.32489246 L35.363492,6.32489246 C35.7315228,5.31388806 36.2439193,4.60251601 37.4212113,4.60251601 C38.2162392,4.60251601 38.629003,5.04483043 38.629003,5.82754352 C38.629003,5.99672369 38.6147698,6.15367397 38.5863033,6.32489246 L38.5863033,6.32489246 Z M37.4496777,3.20830832 C35.0503608,3.20830832 33.2895061,5.3994973 33.2895061,7.67833383 C33.2895061,9.8552546 34.7087631,10.8805272 36.8112154,10.8805272 C37.5920101,10.8805272 38.4012712,10.6950405 39.1413995,10.4687875 L39.3813312,8.95839586 C38.6717027,9.28656463 37.9193745,9.48631953 37.1385798,9.48631953 C35.8311554,9.48631953 35.1072937,8.98693227 35.1072937,7.63552921 L40.2617585,7.63552921 C40.3756244,7.09333733 40.4467906,6.55318377 40.4467906,5.99672369 C40.4467906,4.13370348 39.2532321,3.20830832 37.4496777,3.20830832 L37.4496777,3.20830832 Z" id="Fill-12" fill="#232834" sketch:type="MSShapeGroup" mask="url(#mask-2)"></path>
                <path d="M44.096599,4.75946629 L44.0681326,4.75946629 L44.3243308,3.3774885 L42.5065432,3.3774885 C42.4496103,3.71992547 42.3926773,4.04809424 42.3357444,4.35995648 L41.02832,10.7093087 L42.931507,10.7093087 L43.6147023,7.4215061 C43.854634,6.23928321 44.5093629,5.03056222 45.8574537,5.03056222 C46.0994187,5.03056222 46.3698502,5.07336685 46.5813154,5.14266957 L46.979846,3.27964936 C46.7521142,3.22257653 46.4979493,3.20830832 46.2559843,3.20830832 C45.375557,3.20830832 44.4381967,3.96248499 44.096599,4.75946629" id="Fill-13" fill="#232834" sketch:type="MSShapeGroup" mask="url(#mask-2)"></path>
                <path d="M49.3079968,6.16998049 C49.3079968,3.83407113 50.8573862,2.16876751 53.0574379,2.16876751 C54.1228973,2.16876751 54.8752255,2.43782513 55.330689,2.75172569 L55.826819,1.08642207 C54.9606249,0.729716887 53.9093987,0.601303021 52.9151055,0.601303021 C49.4076294,0.601303021 47.2360443,2.9657488 47.2360443,6.16998049 C47.2360443,8.86055672 48.6695345,10.8805272 51.6666474,10.8805272 C52.4189756,10.8805272 53.185537,10.8091862 53.9093987,10.6114696 L54.2225299,8.70360644 C53.6552338,9.0440051 52.9720384,9.31510104 52.1343108,9.31510104 C50.3876894,9.31510104 49.3079968,7.83528411 49.3079968,6.16998049" id="Fill-14" fill="#232834" sketch:type="MSShapeGroup" mask="url(#mask-2)"></path>
                <path d="M58.0126374,9.48631953 C57.5307407,9.48631953 57.048844,9.2294918 57.048844,8.71787465 C57.048844,7.47857893 58.5819668,7.32162865 59.5050939,7.32162865 L60.174056,7.32162865 C59.875158,8.50385154 59.4339277,9.48631953 58.0126374,9.48631953 L58.0126374,9.48631953 Z M59.334295,3.20830832 C58.4823342,3.20830832 57.6588398,3.36322029 56.8495786,3.64858443 L56.5791472,5.17120598 C57.3314754,4.81653912 58.1427698,4.60251601 58.9804974,4.60251601 C59.6474262,4.60251601 60.4424541,4.81653912 60.4424541,5.55644758 C60.4424541,5.77047069 60.4424541,5.9844938 60.3855212,6.18221038 L59.7185924,6.18221038 C57.9292713,6.18221038 55.2310564,6.36769708 55.2310564,8.78921569 C55.2310564,10.1406187 56.1684166,10.8805272 57.488041,10.8805272 C58.5392671,10.8805272 59.1919627,10.4117147 59.8466915,9.58619698 L59.875158,9.58619698 L59.6758927,10.7093087 L61.2801817,10.7093087 C61.4509806,9.32936925 62.1748423,6.45330632 62.1748423,5.47083834 C62.1748423,3.74846188 60.798285,3.20830832 59.334295,3.20830832 L59.334295,3.20830832 Z" id="Fill-15" fill="#232834" sketch:type="MSShapeGroup" mask="url(#mask-2)"></path>
                <path d="M68.3541001,3.20830832 C67.4736728,3.20830832 66.5363125,3.96248499 66.1947149,4.75946629 L66.1682817,4.75946629 L66.4224466,3.3774885 L64.6046591,3.3774885 C64.5477261,3.71992547 64.4907932,4.04809424 64.4358935,4.35995648 L63.1284691,10.7093087 L65.0316561,10.7093087 L65.7128182,7.4215061 C65.9547832,6.23928321 66.6074787,5.03056222 67.9555695,5.03056222 C68.1975345,5.03056222 68.467966,5.07336685 68.6814646,5.14266957 L69.0779619,3.27964936 C68.8522634,3.22257653 68.5960651,3.20830832 68.3541001,3.20830832" id="Fill-16" fill="#232834" sketch:type="MSShapeGroup" mask="url(#mask-2)"></path>
                <path d="M72.089308,9.40071028 C71.1519477,9.40071028 70.9242159,8.40397409 70.9242159,7.66406563 C70.9242159,6.56745198 71.5626782,4.68812525 72.9270356,4.68812525 C73.8928623,4.68812525 74.3035929,5.57071579 74.3035929,6.42476991 C74.3035929,7.77821128 73.4800985,9.40071028 72.089308,9.40071028 L72.089308,9.40071028 Z M75.7960493,0.0326130452 L74.870889,4.24581082 C74.2751264,3.56297519 73.5512647,3.20830832 72.6139044,3.20830832 C70.129188,3.20830832 68.9356295,5.64205682 68.9356295,7.83528411 C68.9356295,9.4292467 69.7184575,10.8805272 71.4508457,10.8805272 C72.5569714,10.8805272 73.2686332,10.4259829 73.8359294,9.6290016 L73.8643959,9.6290016 L73.6793638,10.7093087 L75.4544517,10.7093087 C75.4971514,10.3403736 75.6110173,9.71257253 75.7228498,9.08680972 L77.697203,0.0326130452 L75.7960493,0.0326130452 L75.7960493,0.0326130452 Z" id="Fill-17" fill="#232834" sketch:type="MSShapeGroup" mask="url(#mask-2)"></path>
                <path d="M96.7006067,21.5225715 C97.9571981,21.5225715 99.3581552,21.8731618 100.54358,22.482618 L101.202376,22.8209784 L102.499634,18.2979567 L101.989271,18.0920868 C100.466314,17.4765156 98.6586933,17.1646534 96.6152072,17.1646534 C92.9206658,17.1646534 88.6100285,18.8992597 88.6100285,23.7912165 C88.6100285,27.058636 90.9320794,28.3611194 92.7966333,29.4067752 C94.3968557,30.303634 95.378949,30.9130902 95.378949,32.1156963 C95.378949,33.9583333 93.6689273,34.6105942 92.2049373,34.6105942 C90.5599819,34.6105942 88.9638261,33.9338735 87.5974355,33.2999575 L86.9630398,33.0023634 L85.5681826,37.6232243 L86.1090456,37.8209409 C88.1931981,38.5853091 90.1675512,38.9705507 91.9772056,38.9705507 C97.5525675,38.9705507 100.748946,36.3268557 100.748946,31.7161865 C100.748946,28.2245523 98.3252289,26.7916166 96.3773089,25.6379302 C94.8909523,24.7594163 93.9800252,24.1723815 93.9800252,23.1919518 C93.9800252,21.5409164 96.5887741,21.5225715 96.7006067,21.5225715" id="Fill-18" fill="#232834" sketch:type="MSShapeGroup" mask="url(#mask-2)"></path>
                <path d="M107.816764,28.6240621 C108.565026,27.0158313 109.494253,26.3982218 111.031442,26.3982218 C112.263634,26.3982218 112.839063,26.9832183 112.839063,28.2367822 C112.839063,28.3692727 112.834997,28.4976866 112.82483,28.6240621 L107.816764,28.6240621 L107.816764,28.6240621 Z M111.088375,22.3807023 C105.738712,22.3807023 102.145836,27.3256553 102.145836,31.9444778 C102.145836,36.4104267 104.939617,38.9705507 109.809417,38.9705507 C111.204274,38.9705507 112.78823,38.6913015 114.652784,38.1164966 L115.014715,38.0043893 L115.738577,33.4752526 L114.701584,33.9542567 C113.261994,34.6187475 111.836637,34.9550695 110.462113,34.9550695 C108.247828,34.9550695 107.216935,34.2253526 107.035969,32.4703631 L117.214767,32.4703631 L117.316433,31.9852441 C117.574664,30.7581783 117.698697,29.6452581 117.698697,28.5792192 C117.698697,24.6982668 115.228214,22.3807023 111.088375,22.3807023 L111.088375,22.3807023 Z" id="Fill-19" fill="#232834" sketch:type="MSShapeGroup" mask="url(#mask-2)"></path>
                <path d="M129.003953,22.3807023 C127.869361,22.3807023 126.718502,22.7292542 125.663209,23.3794768 L125.781142,22.7231393 L120.787309,22.7231393 L120.720209,23.2592162 C120.66531,23.7056072 120.522977,24.4618222 120.358279,25.3158764 L117.497398,38.6281137 L122.55833,38.6281137 L124.223619,30.7663315 C124.864114,27.8637705 125.943807,26.5694403 127.722962,26.5694403 C128.615589,26.5694403 129.191018,27.1340536 129.191018,28.0105292 C129.191018,28.9216562 129.020219,29.767557 128.837221,30.6644158 L127.202432,38.6281137 L132.255231,38.6281137 L133.955086,30.7398334 C134.150284,29.8592812 134.392249,28.7626676 134.392249,27.6966287 C134.392249,24.4679372 132.277597,22.3807023 129.003953,22.3807023" id="Fill-20" fill="#232834" sketch:type="MSShapeGroup" mask="url(#mask-2)"></path>
                <path d="M146.338001,29.4353116 C146.338001,31.6774585 145.00821,34.783851 142.511294,34.783851 C140.957838,34.783851 140.789072,32.7781488 140.789072,31.9159414 C140.789072,29.9978867 141.925698,26.5694403 144.190816,26.5694403 C145.774772,26.5694403 146.338001,28.112445 146.338001,29.4353116 L146.338001,29.4353116 Z M149.44288,16.0231968 L147.726758,23.8605192 C146.5515,22.8678596 145.179009,22.3807023 143.56252,22.3807023 C138.326723,22.3807023 135.587841,27.350115 135.587841,32.2583784 C135.587841,36.3370473 137.802126,38.9705507 141.232336,38.9705507 C142.777659,38.9705507 144.05255,38.5567727 145.134276,37.6884504 L144.973644,38.6281137 L149.794644,38.6281137 L149.857677,38.0859219 C149.941043,37.3541667 150.180975,36.037415 150.388374,34.8979967 L154.501779,16.0231968 L149.44288,16.0231968 L149.44288,16.0231968 Z" id="Fill-21" fill="#232834" sketch:type="MSShapeGroup" mask="url(#mask-2)"></path>
                <path d="M156.994628,16.748837 L158.979148,16.748837 L158.895782,17.1544618 L158.169887,17.1544618 L157.702224,19.3232293 L157.165427,19.3232293 L157.633091,17.1544618 L156.907196,17.1544618 L156.994628,16.748837" id="Fill-22" fill="#232834" sketch:type="MSShapeGroup" mask="url(#mask-2)"></path>
                <path d="M157.354526,19.1703556 L157.578191,19.1703556 L158.045855,17.0015881 L158.77175,17.0015881 L158.792083,16.9017107 L157.118661,16.9017107 L157.096294,17.0015881 L157.822189,17.0015881 L157.354526,19.1703556 L157.354526,19.1703556 Z M157.826256,19.4781413 L156.976329,19.4781413 L157.443992,17.3073354 L156.718097,17.3073354 L156.872629,16.5939251 L159.166214,16.5939251 L159.019815,17.3073354 L158.291886,17.3073354 L157.826256,19.4781413 L157.826256,19.4781413 Z" id="Fill-23" fill="#232834" sketch:type="MSShapeGroup" mask="url(#mask-2)"></path>
                <path d="M159.308546,16.748837 L160.158474,16.748837 L160.331306,18.603704 L160.339439,18.603704 L161.352032,16.748837 L162.20806,16.748837 L161.661097,19.3232293 L161.116167,19.3232293 L161.60213,17.1911515 L161.593997,17.1911515 L160.430938,19.3232293 L159.938875,19.3232293 L159.731476,17.1911515 L159.723343,17.1911515 L159.253646,19.3232293 L158.763616,19.3232293 L159.308546,16.748837" id="Fill-24" fill="#232834" sketch:type="MSShapeGroup" mask="url(#mask-2)"></path>
                <path d="M161.305266,19.1703556 L161.537064,19.1703556 L162.018961,16.9017107 L161.443531,16.9017107 L160.430938,18.7565776 L160.201173,18.7565776 L160.18084,18.6179722 L160.020208,16.9017107 L159.432578,16.9017107 L158.950682,19.1703556 L159.129614,19.1703556 L159.601344,17.0382778 L159.863642,17.0382778 L159.881942,17.1768833 L160.077141,19.1703556 L160.339439,19.1703556 L161.502498,17.0382778 L161.785129,17.0382778 L161.748529,17.2258028 L161.305266,19.1703556 L161.305266,19.1703556 Z M161.783096,19.4781413 L160.925035,19.4781413 L161.213766,18.2082708 L160.522438,19.4781413 L159.798576,19.4781413 L159.670477,18.1410064 L159.375646,19.4781413 L158.574518,19.4781413 L159.186547,16.5939251 L160.296739,16.5939251 L160.439072,18.1043167 L161.260533,16.5939251 L162.397158,16.5939251 L161.783096,19.4781413 L161.783096,19.4781413 Z" id="Fill-25" fill="#232834" sketch:type="MSShapeGroup" mask="url(#mask-2)"></path>
            </g>
        </g>
    </g>
</svg>