<?xml version="1.0" encoding="utf-8"?>
<!-- Generator: Adobe Illustrator 21.0.0, SVG Export Plug-In . SVG Version: 6.00 Build 0)  -->
<svg version="1.1" id="Layer_1" xmlns="http://www.w3.org/2000/svg" xmlns:xlink="http://www.w3.org/1999/xlink" x="0px" y="0px"
	 viewBox="0 0 89.7 50.7" style="enable-background:new 0 0 89.7 50.7;" xml:space="preserve">
<style type="text/css">
	.st0{fill:#232834;}
</style>
<g>
	<path class="st0" d="M76.6,33.7c-0.2,1-0.3,2-0.5,2.8c-0.8-0.3-1.8-0.7-3.3-0.7C72,35.8,71,36.1,71,37s1.3,1.3,2.1,1.7
		c1.3,0.7,2.8,1.5,3,3.3c0.2,1.3-0.5,2.5-1.3,3.3c-2,1.8-6.1,2-9.1,0.8c0.2-1,0.3-2,0.5-3c1.2,0.5,2.6,1.2,4.3,1
		c0.8-0.2,1.6-0.5,1.6-1.3c0-1-1.8-1.5-2.8-2c-1-0.7-2.3-1.5-2.3-3c0-1,0.3-2,0.8-2.5C69.7,33.3,73.5,32.7,76.6,33.7z M42.3,14.8
		h3.9l-2.4,15.1H40L42.3,14.8z M28.9,14.8h5.9c3.8,0,4.8,2.1,4.3,4.8c-0.3,2.1-2,3.6-4,4.1l3.8,6.1h-4.8l-2.8-5.9l-1,5.9h-3.8
		C26.5,29.8,28.9,14.8,28.9,14.8z M32.4,17.8l-0.7,3.8h1.2c1.2,0,2.1-0.8,2.3-1.8c0.2-1-0.7-1.8-1.6-1.8h-1.2
		C32.4,18,32.4,17.8,32.4,17.8z M59.9,14.8h4l-2.5,15.1h-3.8L59.9,14.8z M66.7,14.8h8.6l-0.5,3.4h-4.6l-0.5,2.6h4.4l-0.5,3.1h-4.4
		l-0.3,2.7h4.6l-0.7,3.3h-8.4L66.7,14.8z M18.2,14.8h8.4l-0.5,3.4h-4.6L21,20.8h4.5L25,23.9h-4.5l-0.3,2.7h4.6l-0.5,3.3h-8.6
		L18.2,14.8z M49,14.8h8.6l-0.5,3.4h-4.6L52,20.8h4.3l-0.5,3.1h-4.3l-1,6h-3.8L49,14.8z M82.7,14.9h-5.1l-2.3,14.8h5.1
		c4.8,0,8.6-3.1,9.2-7.4C90.1,19.5,88.6,14.9,82.7,14.9z M85.5,22.3c-0.5,2.6-2.3,4.5-5,4.5h-1l1.3-8.6h0.8
		C84.7,18.2,85.8,20.3,85.5,22.3z M0,12.9h7.1l0.8,10.9c4.8-8.2,9.6-16,14.4-23.8h2.3C19.5,9.9,14.4,19.8,9.4,30H4.1L2.8,18
		c0-3.1-0.7-4.3-2.8-4.6C0,13.4,0,12.9,0,12.9z"/>
	<path class="st0" d="M2.7,6.6l6.1,2.6L9.3,16h0.5l5.6-9.4V6.3H2.7V6.6z M32.1,38.3c-1,0-2,0.5-2.6,1.2l0.8-5.9h-2.5L26,46.8h2.5
		l0.2-1c0.5,0.7,1.2,1.2,2.1,1.2c2,0,4-2,4.3-4.3S34,38.3,32.1,38.3z M30.4,44.2c-1,0-1.5-0.8-1.5-1.8c0.2-1,1-1.8,2-1.8
		s1.5,0.8,1.5,1.8C32.2,43.4,31.4,44.2,30.4,44.2z"/>
	<path class="st0" d="M35.2,38.4h3l1.3,4.2l2.6-4.2h3l-7.6,12.3h-3l3.2-5.2L35.2,38.4z M59.9,46.5l2.4-13h3.4l-2.1,13H59.9z
		 M57,33.3c-1.3,3-2.3,6.1-3.6,8.9l-0.3-1.7v0.3c-0.3-1-0.8-1.8-1.3-2.5c-0.2-0.2-0.2-0.3-0.3-0.3l-0.2-0.2c-0.8-1-2-1.8-3-2.5
		l3.1,11.4h3.8C57,42.2,59,38,60.8,33.5C59.4,33.3,58.3,33.3,57,33.3z"/>
	<path class="st0" d="M50.2,33.3h-5.9v0.3c3.5,0.7,7.6,3.5,8.7,7.1l-1.2-6.1C51.7,33.8,51,33.3,50.2,33.3z M88.8,46.7h-3.3
		c-0.2-0.7-0.3-1.5-0.5-2h-4.5l-0.8,2h-3.8l5-11.2c0.2-0.5,0.7-1.2,0.8-1.5c0.3-0.5,1.2-0.5,1.7-0.5h2.8
		C86.2,33.5,88.8,46.7,88.8,46.7z M83.4,37.1l-1.8,5h3L83.4,37.1z"/>
</g>
</svg>
