<?xml version="1.0" encoding="utf-8"?>
<!-- Generator: Adobe Illustrator 21.0.0, SVG Export Plug-In . SVG Version: 6.00 Build 0)  -->
<svg version="1.1" id="Layer_1" xmlns:sketch="http://www.bohemiancoding.com/sketch/ns"
	 xmlns="http://www.w3.org/2000/svg" xmlns:xlink="http://www.w3.org/1999/xlink" x="0px" y="0px" viewBox="0 0 88 40"
	 style="enable-background:new 0 0 88 40;" xml:space="preserve">
<style type="text/css">
	.st0{fill:#232834;}
</style>
<title>secure-3d</title>
<desc>Created with Sketch.</desc>
<g id="Page-1" sketch:type="MSPage">
	<g id="icons" transform="translate(-352.000000, -436.000000)" sketch:type="MSArtboardGroup">
		<g id="secure-3d" transform="translate(352.000000, 436.000000)" sketch:type="MSLayerGroup">
			<path id="Fill-1" sketch:type="MSShapeGroup" class="st0" d="M52.1,25l5.6-5.6l7.6,7.6L82.7,9.6l5,5L65,37.3L52.1,25"/>
			<path id="Fill-2" sketch:type="MSShapeGroup" class="st0" d="M2.3,5.1v-5h16v4L13,10.2c2.1,0.3,3.7,1.2,4.9,2.6
				c1.1,1.4,1.7,3,1.7,4.9c0,2.7-0.9,4.9-2.8,6.4c-1.9,1.6-4.2,2.3-7.1,2.3c-2.9,0-5.8-1-8.8-3.1l2.4-4.6c2.5,1.7,4.7,2.6,6.6,2.6
				c1.2,0,2.1-0.3,2.9-0.9c0.8-0.6,1.1-1.4,1.1-2.5c0-1.1-0.4-1.9-1.3-2.6c-0.9-0.6-2.1-1-3.6-1c-0.8,0-2,0.2-3.5,0.7V11l5-5.9H2.3"
				/>
			<path id="Fill-3" sketch:type="MSShapeGroup" class="st0" d="M40.5,19c1.4-1.3,2.1-3.3,2.1-5.9c0-2.6-0.7-4.5-2.1-5.9
				c-1.4-1.4-3.6-2.1-6.6-2.1h-3.2V21h3.7C37,21,39.1,20.4,40.5,19L40.5,19z M44.8,3.5c2.5,2.3,3.7,5.4,3.7,9.5
				c0,4.1-1.2,7.3-3.6,9.6c-2.4,2.4-6.1,3.5-11.1,3.5h-8.9V0.1h9.2C38.7,0.1,42.3,1.2,44.8,3.5L44.8,3.5z"/>
			<path id="Fill-4" sketch:type="MSShapeGroup" class="st0" d="M3.1,32.1c-0.4,0-0.7,0.1-1,0.2c-0.3,0.2-0.4,0.4-0.4,0.7
				s0.1,0.6,0.4,0.7c0.3,0.2,0.8,0.4,1.6,0.6c0.8,0.2,1.4,0.5,1.9,0.8c0.4,0.4,0.6,0.9,0.6,1.6S6,38.1,5.4,38.6
				c-0.5,0.4-1.2,0.7-2.1,0.7c-1.3,0-2.4-0.4-3.4-1.3l0.9-1c0.8,0.7,1.7,1.1,2.5,1.1c0.4,0,0.8-0.1,1-0.3c0.3-0.2,0.4-0.4,0.4-0.7
				s-0.1-0.6-0.4-0.7c-0.2-0.2-0.7-0.3-1.2-0.5c-0.6-0.1-1-0.3-1.4-0.4c-0.3-0.1-0.6-0.3-0.8-0.5c-0.5-0.4-0.7-0.9-0.7-1.7
				c0-0.7,0.3-1.3,0.8-1.7c0.5-0.4,1.2-0.6,2-0.6c0.5,0,1,0.1,1.5,0.3c0.5,0.2,0.9,0.4,1.3,0.7l-0.7,1c-0.2-0.2-0.6-0.4-1-0.5
				C3.9,32.2,3.5,32.1,3.1,32.1"/>
			<path id="Fill-5" sketch:type="MSShapeGroup" class="st0" d="M13.6,31.1v1.3H9.3v2.1h3.9v1.2H9.3v2.2h4.4v1.3H7.9v-8.1H13.6"/>
			<path id="Fill-6" sketch:type="MSShapeGroup" class="st0" d="M19.1,37.9c0.5,0,0.9-0.1,1.2-0.2c0.3-0.2,0.7-0.4,1.1-0.8l0.9,0.9
				c-0.9,0.9-1.9,1.4-3.1,1.4c-1.2,0-2.2-0.4-3-1.2c-0.8-0.8-1.2-1.8-1.2-3c0-1.2,0.4-2.2,1.2-3c0.8-0.8,1.9-1.2,3.1-1.2
				c1.2,0,2.3,0.5,3.1,1.4l-0.9,0.9c-0.4-0.4-0.7-0.6-1.1-0.8c-0.3-0.1-0.7-0.2-1.2-0.2c-0.8,0-1.5,0.3-2.1,0.8
				c-0.6,0.5-0.8,1.2-0.8,2c0,0.8,0.3,1.5,0.8,2.1C17.7,37.6,18.4,37.9,19.1,37.9"/>
			<path id="Fill-7" sketch:type="MSShapeGroup" class="st0" d="M25.7,37.3c0.4,0.4,0.9,0.6,1.5,0.6c0.6,0,1.1-0.2,1.5-0.6
				c0.4-0.4,0.6-1,0.6-1.8v-4.5h1.4v4.5c0,1.2-0.3,2.1-1,2.7c-0.6,0.6-1.5,0.9-2.5,0.9c-1,0-1.8-0.3-2.5-0.9c-0.6-0.6-1-1.5-1-2.7
				v-4.5h1.4v4.5C25.2,36.3,25.4,36.8,25.7,37.3"/>
			<path id="Fill-8" sketch:type="MSShapeGroup" class="st0" d="M37.4,34.8c0.3-0.2,0.4-0.6,0.4-1.1c0-0.5-0.1-0.9-0.4-1.1
				c-0.3-0.2-0.8-0.3-1.5-0.3h-1.7v2.9h1.7C36.6,35.2,37.1,35.1,37.4,34.8L37.4,34.8z M39.2,33.7c0,1.3-0.6,2.2-1.7,2.5l2.1,2.9
				h-1.7l-1.9-2.7h-1.8v2.7h-1.4v-8.1h3c1.2,0,2.1,0.2,2.6,0.6C39,32.1,39.2,32.8,39.2,33.7L39.2,33.7z"/>
			<path id="Fill-9" sketch:type="MSShapeGroup" class="st0" d="M46.8,31.1v1.3h-4.3v2.1h3.9v1.2h-3.9v2.2H47v1.3h-5.8v-8.1H46.8"/>
		</g>
	</g>
</g>
</svg>
