<?xml version="1.0" encoding="utf-8"?>
<!-- Generator: Adobe Illustrator 21.0.0, SVG Export Plug-In . SVG Version: 6.00 Build 0)  -->
<svg version="1.1" id="Layer_1" xmlns="http://www.w3.org/2000/svg" xmlns:xlink="http://www.w3.org/1999/xlink" x="0px" y="0px"
	 viewBox="0 0 83.2 25.6" style="enable-background:new 0 0 83.2 25.6;" xml:space="preserve">
<style type="text/css">
	.st0{fill:#232834;}
</style>
<g>
	<path class="st0" d="M29.4,25.1l4.1-24.8h6.8L36,25.1H29.4z M60.4,1c-1.3-0.5-3.5-1-6.1-1c-6.6,0-11.4,3.3-11.4,8.1
		c0,3.5,3.3,5.4,5.9,6.8c2.6,1.2,3.5,2,3.5,3.1c0,1.6-2.1,2.5-4,2.5c-2.6,0-4.1-0.3-6.3-1.3l-0.8-0.3l-1,5.4
		c1.7,0.7,4.5,1.3,7.4,1.3c7.1,0,11.7-3.3,11.7-8.4c0-2.8-1.8-5-5.6-6.8c-2.3-1.2-3.8-2-3.8-3.1c0-1,1.2-2.1,3.8-2.1
		c2.1,0,3.8,0.5,5.1,1l0.7,0.3L60.4,1 M77.7,0.5h-5.3c-1.7,0-2.8,0.5-3.5,2l-10,22.6H66c0,0,1.2-3,1.5-3.6h8.6
		c0.2,0.8,0.8,3.6,0.8,3.6h6.3L77.7,0.5 M69.5,16.3c0.5-1.5,2.6-6.9,2.6-6.9s0.5-1.5,0.8-2.3l0.5,2.1c0,0,1.3,5.9,1.5,7.1H69.5z
		 M23.6,0.5L17,17.3l-0.7-3.5c-1.2-4-5.1-8.3-9.2-10.4L13,25h7.1L30.7,0.4h-7.1"/>
	<path class="st0" d="M10.9,0.3H0.2L0,0.8c8.4,2,14,6.9,16.3,12.9L14,2.3C13.6,1,12.4,0.5,10.9,0.3"/>
</g>
</svg>
