<?xml version="1.0" encoding="UTF-8" standalone="no"?>
<svg width="113px" height="40px" viewBox="0 0 113 40" version="1.1" xmlns="http://www.w3.org/2000/svg" xmlns:xlink="http://www.w3.org/1999/xlink" xmlns:sketch="http://www.bohemiancoding.com/sketch/ns">
    <!-- Generator: Sketch 3.3.3 (12072) - http://www.bohemiancoding.com/sketch -->
    <title>mastercard-securecode</title>
    <desc>Created with Sketch.</desc>
    <defs>
        <path id="path-1" d="M0.0126315789,0.0844210526 L112.670737,0.0844210526 L112.670737,40 L0.0126315789,40 L0.0126315789,0.0844210526 Z"></path>
    </defs>
    <g id="Page-1" stroke="none" stroke-width="1" fill="none" fill-rule="evenodd" sketch:type="MSPage">
        <g id="icons" sketch:type="MSArtboardGroup" transform="translate(-44.000000, -436.000000)">
            <g id="mastercard-securecode" sketch:type="MSLayerGroup" transform="translate(44.000000, 436.000000)">
                <path d="M108.336421,15.6863158 L108.578105,15.6863158 C108.666947,15.6863158 108.770526,15.6896842 108.844632,15.6452632 C108.918526,15.5976842 108.950737,15.5021053 108.950737,15.4183158 C108.950737,15.3442105 108.908632,15.2555789 108.844632,15.2208421 C108.780421,15.1766316 108.649684,15.1863158 108.573263,15.1863158 L108.336421,15.1863158 L108.336421,15.6863158 L108.336421,15.6863158 Z M108.336421,16.7901053 L107.902105,16.7901053 L107.902105,14.8261053 L108.689053,14.8261053 C108.849474,14.8261053 109.029684,14.836 109.167789,14.9347368 C109.318316,15.0450526 109.404632,15.2307368 109.404632,15.4282105 C109.404632,15.6452632 109.281263,15.8492632 109.083789,15.9231579 L109.424421,16.7901053 L108.940842,16.7901053 L108.654526,16.0202105 L108.336421,16.0202105 L108.336421,16.7901053 L108.336421,16.7901053 Z M108.625053,17.5153684 C109.515579,17.5153684 110.243368,16.7505263 110.243368,15.8130526 C110.243368,14.8804211 109.515579,14.1223158 108.625053,14.1223158 C107.736842,14.1223158 107.006526,14.8804211 107.006526,15.8130526 C107.006526,16.7505263 107.736842,17.5153684 108.625053,17.5153684 L108.625053,17.5153684 Z M106.503368,15.8130526 C106.503368,14.5810526 107.458105,13.5844211 108.625053,13.5844211 C109.796842,13.5844211 110.741684,14.5810526 110.741684,15.8130526 C110.741684,17.0465263 109.796842,18.0433684 108.625053,18.0433684 C107.458105,18.0433684 106.503368,17.0465263 106.503368,15.8130526 L106.503368,15.8130526 Z" id="Fill-1" fill="#232834" sketch:type="MSShapeGroup"></path>
                <path d="M76.1776842,0.992421053 L75.5978947,4.772 C74.3372632,4.10084211 73.4094737,3.83768421 72.4202105,3.83768421 C69.7778947,3.83768421 67.9103158,6.52357895 67.9103158,10.3574737 C67.9103158,13.0054737 69.1635789,14.6008421 71.2261053,14.6008421 C72.1018947,14.6008421 73.0642105,14.3195789 74.2410526,13.7029474 L73.6216842,17.6797895 C72.3191579,18.0547368 71.4703158,18.188 70.4861053,18.188 C66.6595789,18.188 64.2787368,15.3014737 64.2787368,10.6682105 C64.2787368,4.43642105 67.5673684,0.0844210526 72.2722105,0.0844210526 C72.8791579,0.0844210526 73.4218947,0.143578947 73.8635789,0.272 L75.3265263,0.655157895 C75.7606316,0.827789474 75.8593684,0.854105263 76.1776842,0.992421053" id="Fill-2" fill="#232834" sketch:type="MSShapeGroup"></path>
                <path d="M64.3995789,3.58273684 C64.2886316,3.56147368 64.1652632,3.54652632 64.0370526,3.54652632 C62.8675789,3.54652632 62.2063158,4.16505263 61.1208421,5.85242105 L61.4366316,3.69957895 L58.2221053,3.69957895 L56.0427368,17.8673684 L59.6086316,17.8673684 C60.884,9.20778947 61.2096842,7.71263158 62.9193684,7.71263158 C63.0229474,7.71263158 63.0328421,7.71263158 63.1785263,7.72757895 C63.4943158,6.02021053 63.9258947,4.76526316 64.5206316,3.62063158 L64.3995789,3.58273684" id="Fill-3" fill="#232834" sketch:type="MSShapeGroup"></path>
                <path d="M43.1545263,17.6947368 C42.1898947,18.0153684 41.4275789,18.1616842 40.6086316,18.1616842 C38.7976842,18.1616842 37.8084211,17.0581053 37.8084211,15.0450526 C37.8084211,14.6503158 37.8378947,14.2242105 37.9094737,13.7751579 L38.1290526,12.3936842 L38.292,11.2652632 L39.8313684,1.59768421 L43.3593684,1.59768421 L42.9547368,3.69957895 L44.7705263,3.69957895 L44.2722105,7.14357895 L42.4612632,7.14357895 L41.5237895,13.0564211 C41.4917895,13.3178947 41.4646316,13.5105263 41.4646316,13.6435789 C41.4646316,14.3690526 41.8347368,14.6930526 42.6734737,14.6930526 C43.0831579,14.6930526 43.3913684,14.6503158 43.6282105,14.5614737 L43.1545263,17.6947368" id="Fill-4" fill="#232834" sketch:type="MSShapeGroup"></path>
                <path d="M29.1661053,8.17978947 C29.1661053,9.96757895 29.9901053,11.2044211 31.8553684,12.1288421 C33.2837895,12.8393684 33.5107368,13.0465263 33.5107368,13.6913684 C33.5107368,14.5713684 32.8766316,14.9791579 31.4802105,14.9791579 C30.4267368,14.9791579 29.4425263,14.8031579 28.3075789,14.4117895 L27.8166316,17.6797895 L27.9770526,17.7143158 L28.6282105,17.8526316 C28.8378947,17.8968421 29.1463158,17.9364211 29.5534737,17.9808421 C30.3995789,18.0597895 31.0484211,18.0976842 31.5073684,18.0976842 C35.2303158,18.0976842 36.9522105,16.5943158 36.9522105,13.3673684 C36.9522105,11.4282105 36.2343158,10.2818947 34.4606316,9.42315789 C32.9802105,8.71768421 32.8124211,8.55157895 32.8124211,7.89368421 C32.8124211,7.12547368 33.3995789,6.73073684 34.5395789,6.73073684 C35.2351579,6.73073684 36.1776842,6.81305263 37.0781053,6.94126316 L37.5837895,3.66989474 C36.6587368,3.512 35.2846316,3.39031579 34.4703158,3.39031579 C30.5206316,3.39031579 29.1513684,5.56463158 29.1661053,8.17978947" id="Fill-5" fill="#232834" sketch:type="MSShapeGroup"></path>
                <path d="M99.2056842,14.5317895 C100.863579,14.5317895 102.022947,12.5629474 102.022947,9.75873684 C102.022947,7.95768421 101.361895,6.97747368 100.135789,6.97747368 C98.5271579,6.97747368 97.3848421,8.95452632 97.3848421,11.7423158 C97.3848421,13.5976842 97.9991579,14.5317895 99.2056842,14.5317895 L99.2056842,14.5317895 Z M104.443158,17.8673684 L101.085474,17.8673684 L101.260632,16.4791579 C100.283789,17.5762105 99.2795789,18.0547368 97.9818947,18.0547368 C95.3865263,18.0547368 93.6867368,15.716 93.6867368,12.1732632 C93.6867368,7.46105263 96.3290526,3.48252632 99.4671579,3.48252632 C100.846316,3.48252632 101.889895,4.07957895 102.871789,5.42168421 L103.643789,0.444631579 L107.142316,0.444631579 L104.443158,17.8673684 L104.443158,17.8673684 Z" id="Fill-6" fill="#232834" sketch:type="MSShapeGroup"></path>
                <path d="M52.4037895,9.13368421 C52.4235789,8.83768421 52.4284211,8.596 52.4284211,8.41663158 C52.4284211,7.25873684 51.8042105,6.58273684 50.7484211,6.58273684 C49.6233684,6.58273684 48.8166316,7.48568421 48.4858947,9.124 L52.4037895,9.13368421 L52.4037895,9.13368421 Z M54.3947368,17.5696842 C53.1808421,17.9511579 52.0065263,18.1435789 50.7484211,18.1387368 C46.7911579,18.1387368 44.7237895,15.9610526 44.7237895,11.7966316 C44.7237895,6.92821053 47.3536842,3.34421053 50.9284211,3.34421053 C53.8446316,3.34421053 55.7170526,5.35242105 55.7170526,8.50063158 C55.7170526,9.54336842 55.5913684,10.5597895 55.2755789,11.9955789 L48.2195789,11.9955789 C48.1898947,12.2111579 48.1850526,12.3096842 48.1850526,12.4347368 C48.1850526,14.0909474 49.2408421,14.9248421 51.3058947,14.9248421 C52.5715789,14.9248421 53.7113684,14.6503158 54.9869474,14.0235789 L54.3947368,17.5696842 L54.3947368,17.5696842 Z" id="Fill-7" fill="#232834" sketch:type="MSShapeGroup"></path>
                <path d="M14.9185263,17.8673684 L11.3732632,17.8673684 L13.4037895,4.47915789 L8.86673684,17.8673684 L6.43663158,17.8673684 L6.14315789,4.55810526 L4.00421053,17.8673684 L0.683368421,17.8673684 L3.45389474,0.444631579 L8.56336842,0.444631579 L8.704,11.2258947 L12.1530526,0.444631579 L17.6669474,0.444631579 L14.9185263,17.8673684" id="Fill-8" fill="#232834" sketch:type="MSShapeGroup"></path>
                <path d="M26.6349474,17.8673684 L23.6964211,17.8673684 L23.7606316,16.3968421 C22.8650526,17.5696842 21.6686316,18.1141053 20.0427368,18.1141053 C18.1134737,18.1141053 16.796,16.5351579 16.796,14.2538947 C16.796,10.7949474 19.0978947,8.78673684 23.0328421,8.78673684 C23.4349474,8.78673684 23.9482105,8.81789474 24.4762105,8.892 C24.5871579,8.42315789 24.6168421,8.22084211 24.6168421,7.97263158 C24.6168421,7.03663158 24,6.68147368 22.3370526,6.68147368 C21.3330526,6.68147368 20.1808421,6.83452632 19.3865263,7.08610526 L18.8930526,7.22926316 L18.5823158,7.32126316 L19.0707368,4.14357895 C20.8421053,3.59263158 22.0090526,3.38042105 23.324,3.38042105 C26.3732632,3.38042105 27.9892632,4.81957895 27.9892632,7.53515789 C27.9892632,8.24063158 27.9374737,8.76378947 27.6957895,10.3458947 L26.9530526,15.3656842 L26.8322105,16.272 L26.7408421,16.9938947 L26.6791579,17.4873684 L26.6349474,17.8673684 L26.6349474,17.8673684 Z M24.0543158,11.5564211 C23.6791579,11.512 23.5138947,11.4955789 23.2597895,11.4955789 C21.2490526,11.4955789 20.2303158,12.2275789 20.2303158,13.6585263 C20.2303158,14.54 20.7311579,15.1025263 21.5056842,15.1025263 C22.9490526,15.1025263 23.9949474,13.6585263 24.0543158,11.5564211 L24.0543158,11.5564211 Z" id="Fill-9" fill="#232834" sketch:type="MSShapeGroup"></path>
                <path d="M84.8741053,17.8673684 L81.9309474,17.8673684 L82,16.3968421 C81.1044211,17.5696842 79.9054737,18.1141053 78.2821053,18.1141053 C76.3528421,18.1141053 75.0305263,16.5351579 75.0305263,14.2538947 C75.0305263,10.7949474 77.3296842,8.78673684 81.2722105,8.78673684 C81.6717895,8.78673684 82.1898947,8.81789474 82.7153684,8.892 C82.824,8.42315789 82.856,8.22084211 82.856,7.97263158 C82.856,7.03663158 82.2393684,6.68147368 80.5764211,6.68147368 C79.5673684,6.68147368 78.4176842,6.83452632 77.6307368,7.08610526 L77.1250526,7.22926316 L76.8191579,7.32126316 L77.3124211,4.14357895 C79.0863158,3.59263158 80.2507368,3.38042105 81.556,3.38042105 C84.6101053,3.38042105 86.2261053,4.81957895 86.2261053,7.53515789 C86.2261053,8.24063158 86.1644211,8.76378947 85.9349474,10.3458947 L85.1875789,15.3656842 L85.0764211,16.272 L84.9778947,16.9938947 L84.9136842,17.4873684 L84.8741053,17.8673684 L84.8741053,17.8673684 Z M82.2911579,11.5564211 C81.9210526,11.512 81.7507368,11.4955789 81.5016842,11.4955789 C79.4835789,11.4955789 78.4621053,12.2275789 78.4621053,13.6585263 C78.4621053,14.54 78.968,15.1025263 79.7425263,15.1025263 C81.1932632,15.1025263 82.2269474,13.6585263 82.2911579,11.5564211 L82.2911579,11.5564211 Z" id="Fill-10" fill="#232834" sketch:type="MSShapeGroup"></path>
                <path d="M94.7869474,3.58273684 C94.6808421,3.56147368 94.5650526,3.54652632 94.4292632,3.54652632 C93.2648421,3.54652632 92.5987368,4.16505263 91.5082105,5.85242105 L91.824,3.69957895 L88.6143158,3.69957895 L86.4431579,17.8673684 L89.9983158,17.8673684 C91.2738947,9.20778947 91.6094737,7.71263158 93.3067368,7.71263158 C93.4176842,7.71263158 93.4103158,7.70294737 93.556,7.72757895 C93.8766316,6.02021053 94.3109474,4.76526316 94.908,3.62063158 L94.7869474,3.58273684" id="Fill-11" fill="#232834" sketch:type="MSShapeGroup"></path>
                <path d="M83.3865263,31.5214737 C83.3865263,27.9507368 81.6225263,25.1726316 78.3067368,25.1726316 C74.4901053,25.1726316 72.0181053,28.5509474 72.0181053,33.5263158 C72.0181053,37.0871579 73.4785263,40 77.0928421,40 C80.7393684,40 83.3865263,37.4176842 83.3865263,31.5214737 L83.3865263,31.5214737 Z M79.8955789,31.4621053 C79.8955789,34.6743158 78.9012632,36.5658947 77.3347368,36.5658947 C76.1898947,36.6004211 75.4966316,35.3256842 75.4966316,33.4176842 C75.4966316,31.1629474 76.5107368,28.6069474 78.1364211,28.6069474 C79.444,28.6069474 79.8955789,29.9917895 79.8955789,31.4621053 L79.8955789,31.4621053 Z" id="Fill-12" fill="#232834" sketch:type="MSShapeGroup"></path>
                <path d="M73.1578947,22.6661053 L72.6151579,26.4408421 C71.4357895,25.7747368 70.5772632,25.4983158 69.6496842,25.4983158 C67.1703158,25.4983158 65.4383158,28.1957895 65.4383158,32.0296842 C65.4383158,34.676 66.5978947,36.2778947 68.5296842,36.2778947 C69.3536842,36.2778947 70.2541053,35.9966316 71.3494737,35.38 L70.7747368,39.3536842 C69.5484211,39.732 68.7467368,39.8618947 67.8364211,39.8618947 C64.264,39.8618947 62.0387368,36.9736842 62.0387368,32.3404211 C62.0387368,26.1052632 65.1101053,21.7532632 69.5090526,21.7532632 C70.0789474,21.7532632 70.5823158,21.8256842 70.9991579,21.9408421 L72.356,22.3256842 C72.7755789,22.4917895 72.8618947,22.5214737 73.1578947,22.6661053" id="Fill-13" fill="#232834" sketch:type="MSShapeGroup"></path>
                <path d="M51.2145263,25.2597895 C51.1134737,25.232 50.9974737,25.2204211 50.8741053,25.2204211 C49.7985263,25.2204211 49.1669474,25.8421053 48.1578947,27.5246316 L48.4513684,25.3749474 L45.4515789,25.3749474 L43.4258947,39.5444211 L46.7393684,39.5444211 C47.9309474,30.8766316 48.2467368,29.3848421 49.8355789,29.3848421 C49.9292632,29.3848421 49.9391579,29.3848421 50.0772632,29.4012632 C50.3757895,27.6875789 50.7778947,26.4309474 51.3355789,25.2846316 L51.2145263,25.2597895" id="Fill-14" fill="#232834" sketch:type="MSShapeGroup"></path>
                <path d="M89.5987368,36.0608421 C91.1604211,36.0608421 92.236,34.0936842 92.236,31.2861053 C92.236,29.4802105 91.6216842,28.5115789 90.4818947,28.5115789 C88.9745263,28.5115789 87.9037895,30.4802105 87.9037895,33.2778947 C87.9037895,35.1233684 88.4785263,36.0608421 89.5987368,36.0608421 L89.5987368,36.0608421 Z M94.4983158,39.3930526 L91.3675789,39.3930526 L91.528,38.0098947 C90.6176842,39.1004211 89.6703158,39.584 88.4589474,39.584 C86.0435789,39.584 84.4498947,37.2418947 84.4498947,33.6989474 C84.4498947,28.9951579 86.9244211,25.0050526 89.8503158,25.0050526 C91.1406316,25.0050526 92.12,25.6151579 93.0254737,26.9572632 L93.7557895,21.9753684 L97.0172632,21.9753684 L94.4983158,39.3930526 L94.4983158,39.3930526 Z" id="Fill-15" fill="#232834" sketch:type="MSShapeGroup"></path>
                <path d="M18.2886316,30.9046316 C18.3033684,30.6052632 18.3132632,30.3667368 18.3132632,30.1842105 C18.3132632,29.0296842 17.7311579,28.3536842 16.7467368,28.3536842 C15.6884211,28.3536842 14.9357895,29.2631579 14.6324211,30.8898947 L18.2886316,30.9046316 L18.2886316,30.9046316 Z M20.1414737,39.3338947 C19.0138947,39.7237895 17.9162105,39.9111579 16.7467368,39.9111579 C13.0461053,39.9111579 11.1143158,37.7286316 11.1143158,33.5658947 C11.1143158,28.704 13.5715789,25.1168421 16.9071579,25.1168421 C19.6381053,25.1168421 21.38,27.1216842 21.38,30.2696842 C21.38,31.3109474 21.2614737,32.3305263 20.9778947,33.7665263 L14.3732632,33.7665263 C14.3536842,33.9787368 14.3463158,34.084 14.3463158,34.2071579 C14.3463158,35.8585263 15.3355789,36.6924211 17.2574737,36.6924211 C18.4416842,36.6924211 19.5124211,36.4162105 20.6989474,35.7945263 L20.1414737,39.3338947 L20.1414737,39.3338947 Z" id="Fill-16" fill="#232834" sketch:type="MSShapeGroup"></path>
                <path d="M57.6966316,30.9046316 C57.7187368,30.6052632 57.7311579,30.3667368 57.7311579,30.1842105 C57.7311579,29.0296842 57.144,28.3536842 56.1635789,28.3536842 C55.1052632,28.3536842 54.3528421,29.2631579 54.0469474,30.8898947 L57.6966316,30.9046316 L57.6966316,30.9046316 Z M59.5591579,39.3338947 C58.4292632,39.7237895 57.3290526,39.9111579 56.1635789,39.9111579 C52.4555789,39.9111579 50.5263158,37.7286316 50.5263158,33.5658947 C50.5263158,28.704 52.9858947,25.1168421 56.3191579,25.1168421 C59.0509474,25.1168421 60.7976842,27.1216842 60.7976842,30.2696842 C60.7976842,31.3109474 60.6743158,32.3305263 60.3808421,33.7665263 L53.7903158,33.7665263 C53.7705263,33.9787368 53.7581053,34.084 53.7581053,34.2071579 C53.7581053,35.8585263 54.7450526,36.6924211 56.6677895,36.6924211 C57.852,36.6924211 58.9252632,36.4162105 60.1117895,35.7945263 L59.5591579,39.3338947 L59.5591579,39.3338947 Z" id="Fill-17" fill="#232834" sketch:type="MSShapeGroup"></path>
                <g id="Group-21">
                    <mask id="mask-2" sketch:name="Clip 19" fill="white">
                        <use xlink:href="#path-1"></use>
                    </mask>
                    <g id="Clip-19"></g>
                    <path d="M103.942526,30.9046316 C103.957263,30.6052632 103.967158,30.3667368 103.967158,30.1842105 C103.967158,29.0296842 103.387368,28.3536842 102.400421,28.3536842 C101.342105,28.3536842 100.592211,29.2631579 100.286105,30.8898947 L103.942526,30.9046316 L103.942526,30.9046316 Z M105.805053,39.3338947 C104.660421,39.7237895 103.574737,39.9111579 102.400421,39.9111579 C98.6997895,39.9111579 96.7631579,37.7286316 96.7631579,33.5658947 C96.7631579,28.704 99.2277895,25.1168421 102.560842,25.1168421 C105.292,25.1168421 107.031158,27.1216842 107.031158,30.2696842 C107.031158,31.3109474 106.917684,32.3305263 106.624211,33.7665263 L100.027158,33.7665263 C100.004842,33.9787368 100,34.084 100,34.2071579 C100,35.8585263 100.989263,36.6924211 102.911158,36.6924211 C104.097895,36.6924211 105.166105,36.4162105 106.355368,35.7945263 L105.805053,39.3338947 L105.805053,39.3338947 Z" id="Fill-18" fill="#232834" sketch:type="MSShapeGroup" mask="url(#mask-2)"></path>
                    <path d="M10.3322105,25.9012632 C9.68336842,25.4671579 8.80505263,25.0871579 7.56421053,25.0871579 C6.22442105,25.0871579 5.14631579,25.3650526 5.14631579,26.7911579 C5.14631579,29.3075789 10.0311579,28.3684211 10.0311579,33.7583158 C10.0311579,38.6677895 6.80673684,39.9408421 3.89052632,39.9408421 C2.59284211,39.9408421 1.10042105,39.5115789 0,39.0229474 L0.792,35.4145263 C1.45557895,36.0181053 2.79515789,36.4309474 3.89052632,36.4309474 C4.93431579,36.4309474 6.56989474,36.1463158 6.56989474,34.324 C6.56989474,31.472 1.68757895,32.5328421 1.68757895,27.5263158 C1.68757895,22.9473684 4.53957895,21.5755789 7.29031579,21.5755789 C8.83957895,21.5755789 10.2951579,21.8027368 11.1488421,22.3701053 L10.3322105,25.9012632" id="Fill-20" fill="#232834" sketch:type="MSShapeGroup" mask="url(#mask-2)"></path>
                </g>
                <path d="M29.8446316,39.3290526 C29.1612632,39.6578947 28.2484211,39.8749474 26.9012632,39.8749474 C24.0048421,39.8749474 22.2088421,36.9802105 22.2088421,33.4555789 C22.2088421,28.8421053 24.8067368,25.1629474 28.6307368,25.1629474 C29.4646316,25.1629474 30.7376842,25.5229474 31.7416842,26.1052632 L31.0090526,29.4884211 C30.2985263,29.0214737 29.5583158,28.7252632 28.796,28.7252632 C27.0246316,28.7252632 25.7589474,30.3486316 25.7589474,33.2583158 C25.7589474,34.9326316 26.6768421,36.3075789 28.1273684,36.3075789 C28.9909474,36.3075789 29.5978947,36.1250526 30.3404211,35.6907368 L29.8446316,39.3290526" id="Fill-22" fill="#232834" sketch:type="MSShapeGroup"></path>
                <path d="M42.2393684,35.7812632 C42.0690526,37 41.9111579,38.1842105 41.8174737,39.4555789 L38.6273684,39.4555789 L38.8964211,37.1661053 L38.8642105,37.1661053 C37.8650526,38.7221053 36.8313684,39.7812632 35.0254737,39.7812632 C33.0221053,39.7812632 31.9366316,37.6743158 31.9366316,34.9227368 C31.9366316,33.9736842 31.9957895,33.4374737 32.208,31.9555789 L33.1109474,25.3981053 L36.6612632,25.3981053 L35.7088421,31.9753684 C35.6126316,32.6825263 35.4770526,33.3831579 35.4770526,34.1134737 C35.4770526,34.9425263 35.8545263,35.7812632 36.8115789,35.7303158 C38.2673684,35.7303158 39.1258947,33.9507368 39.3701053,31.8734737 L40.3494737,25.3981053 L43.7861053,25.3981053 L42.2393684,35.7812632" id="Fill-23" fill="#232834" sketch:type="MSShapeGroup"></path>
                <path d="M109.112421,39.2837895 L108.575789,39.2837895 L108.575789,36.9351579 L107.8,36.9351579 L107.8,36.4303158 L109.888842,36.4303158 L109.888842,36.9351579 L109.112421,36.9351579 L109.112421,39.2837895" id="Fill-24" fill="#232834" sketch:type="MSShapeGroup"></path>
                <path d="M112.670737,39.2837895 L112.170526,39.2837895 L112.170526,36.8993684 L112.162947,36.8993684 L111.683789,39.2837895 L111.158105,39.2837895 L110.689684,36.8993684 L110.682316,36.8993684 L110.682316,39.2837895 L110.181895,39.2837895 L110.181895,36.4303158 L110.964842,36.4303158 L111.429895,38.68 L111.437263,38.68 L111.895158,36.4303158 L112.670737,36.4303158 L112.670737,39.2837895" id="Fill-25" fill="#232834" sketch:type="MSShapeGroup"></path>
            </g>
        </g>
    </g>
</svg>