<?xml version="1.0" encoding="utf-8"?>
<!-- Generator: Adobe Illustrator 21.0.0, SVG Export Plug-In . SVG Version: 6.00 Build 0)  -->
<svg version="1.1" id="Layer_1" xmlns="http://www.w3.org/2000/svg" xmlns:xlink="http://www.w3.org/1999/xlink" x="0px" y="0px"
	 viewBox="0 0 105.3 66" style="enable-background:new 0 0 105.3 66;" xml:space="preserve">
<style type="text/css">
	.st0{fill:#232834;}
</style>
<path class="st0" d="M105.4,33c0,18-14.7,32.7-32.7,32.7c-7.5,0-14.4-2.6-20-6.8c-5.5,4.3-12.5,6.8-20,6.8C14.7,65.7,0,51,0,33
	S14.7,0.3,32.7,0.3c7.5,0,14.4,2.5,20,6.8c5.5-4.3,12.5-6.8,20-6.8C90.7,0.3,105.4,15,105.4,33z M72.7,3.2C66.1,3.2,59.9,5.4,55,9
	c4.5,4.2,7.8,9.6,9.4,15.7h-3c-1.6-5.4-4.6-10.2-8.6-13.8c-4,3.7-7.1,8.4-8.6,13.8h-3c1.6-6.1,4.9-11.5,9.4-15.7
	c-4.9-3.7-11.1-5.8-17.7-5.8C16.3,3.2,3,16.6,3,33s13.3,29.8,29.8,29.8c6.6,0,12.8-2.2,17.7-5.8c-4.2-3.9-7.4-9-9.1-14.6h3.1
	c1.6,5,4.5,9.3,8.3,12.8c3.8-3.4,6.7-7.8,8.3-12.8h3C62.4,48,59.2,53,55,56.9c4.9,3.7,11.1,5.8,17.7,5.8c16.4,0,29.8-13.3,29.8-29.8
	C102.4,16.6,89.1,3.2,72.7,3.2z M20.7,25.9h-4.8l-3,8.9l-0.1-8.9H8.4L6,40.2h2.9l1.8-11l0.3,11h2.1l3.9-11l-1.8,11h3.1
	C18.3,40.2,20.7,25.9,20.7,25.9z M26.4,35h-0.7c-1.7,0-2.6,0.6-2.6,1.8c0,0.7,0.4,1.2,1.1,1.2C25.4,38,26.3,36.8,26.4,35z
	 M28.6,40.2h-2.5V39c-0.8,1-1.8,1.4-3.2,1.4c-1.7,0-2.8-1.3-2.8-3.2c0-2.8,2-4.5,5.4-4.5c0.3,0,0.8,0,1.3,0.1
	c0.1-0.4,0.1-0.6,0.1-0.8c0-0.8-0.5-1.1-2-1.1s-2.7,0.4-3.2,0.5c0-0.2,0.4-2.6,0.4-2.6c1.5-0.5,2.5-0.6,3.7-0.6c2.6,0,4,1.2,4,3.4
	c0,0.6-0.1,1.3-0.2,2.3C29.3,35.7,28.7,39.4,28.6,40.2z M68.7,25.6c-4.1,0-6.9,3.6-6.9,8.7c0,3.8,2.1,6.2,5.4,6.2
	c0.8,0,1.6-0.1,2.7-0.4l0.5-3.3c-1,0.5-1.8,0.7-2.6,0.7c-1.8,0-2.9-1.3-2.9-3.5c0-3.2,1.6-5.4,3.9-5.4c0.9,0,1.6,0.2,2.7,0.8
	l0.5-3.1C71.6,26.1,70.1,25.6,68.7,25.6z M77.6,35h-0.7c-1.7,0-2.6,0.6-2.6,1.8c0,0.7,0.4,1.2,1.1,1.2C76.6,38,77.5,36.8,77.6,35z
	 M79.8,40.2h-2.5l0.1-1.2c-0.8,1-1.8,1.4-3.2,1.4c-1.7,0-2.8-1.3-2.8-3.2c0-2.8,2-4.5,5.4-4.5c0.3,0,0.8,0,1.3,0.1
	c0.1-0.4,0.1-0.6,0.1-0.8c0-0.8-0.5-1.1-2-1.1s-2.7,0.4-3.2,0.5c0-0.2,0.4-2.6,0.4-2.6c1.5-0.5,2.5-0.6,3.7-0.6c2.6,0,4,1.2,4,3.4
	c0,0.6-0.1,1.3-0.2,2.3C80.4,35.7,79.9,39.4,79.8,40.2z M43.7,37.5c-0.2,0.1-0.5,0.1-0.8,0.1c-0.7,0-1.1-0.3-1.1-0.9
	c0-0.4,0.5-3.1,0.9-5.3h1.6l0.4-2.8h-1.6l0.4-1.8h-3.1c0,0-1.2,6.9-1.3,8c-0.2,1.2-0.4,2.6-0.4,3.1c0,1.7,0.9,2.6,2.4,2.6
	c0.7,0,1.4-0.1,2.2-0.4C43.3,40.1,43.7,37.5,43.7,37.5z M53.1,40C52,40.3,51,40.5,50,40.5c-3.4,0-5.2-1.8-5.2-5.2
	c0-4,2.3-6.9,5.3-6.9c2.5,0,4.1,1.6,4.1,4.2c0,0.9-0.1,1.7-0.4,2.9h-6.1c-0.2,1.7,0.9,2.4,2.7,2.4c1.1,0,2.1-0.2,3.2-0.7L53.1,40z
	 M51.4,33.1c0-0.2,0.3-2.1-1.4-2.1c-1,0-1.7,0.7-2,2.1H51.4z M31,32.3c0,1.5,0.7,2.5,2.3,3.3c1.2,0.6,1.4,0.8,1.4,1.3
	c0,0.7-0.5,1.1-1.8,1.1c-0.9,0-1.8-0.1-2.7-0.5c0,0-0.4,2.6-0.4,2.7c0.7,0.2,1.3,0.3,3.2,0.3c3.2,0,4.7-1.2,4.7-3.9
	c0-1.6-0.6-2.5-2.2-3.2c-1.2-0.7-1.4-0.8-1.4-1.4s0.5-1,1.5-1c0.6,0,1.4,0.1,2.2,0.2l0.4-2.7c-0.8-0.1-2-0.2-2.7-0.2
	C32.2,28.3,31,30.1,31,32.3z M97.1,40.2h-2.9l0.1-1.1c-0.8,0.9-1.7,1.3-2.8,1.3c-2.2,0-3.7-1.9-3.7-4.8c0-3.9,2.3-7.2,5-7.2
	c1.2,0,2.1,0.5,2.9,1.6l0.7-4.1h3L97.1,40.2z M92.6,37.6c1.4,0,2.4-1.6,2.4-3.9c0-1.5-0.6-2.3-1.6-2.3C92,31.4,91,33,91,35.3
	C91,36.8,91.5,37.6,92.6,37.6z M83.1,28.6c-0.4,3.6-1.1,7.3-1.6,10.9l-0.1,0.8h3.1c1.1-7.1,1.4-8.5,3.1-8.4c0.3-1.5,0.8-2.7,1.2-3.4
	c-1.3-0.3-2,0.5-2.9,1.8c0.1-0.6,0.2-1.2,0.2-1.8h-3L83.1,28.6z M56.3,28.6c-0.4,3.6-1.1,7.3-1.6,10.9l-0.1,0.8h3.1
	c1.1-7.1,1.4-8.5,3.1-8.4c0.3-1.5,0.8-2.7,1.2-3.4c-1.3-0.3-2,0.5-2.9,1.8c0.1-0.6,0.2-1.2,0.2-1.8h-3L56.3,28.6z M99.4,40.9
	c0.6,0,1.1-0.5,1.1-1.1s-0.5-1.1-1.1-1.1s-1.1,0.5-1.1,1.1C98.4,40.4,98.8,40.9,99.4,40.9z M98.6,39.8c0-0.4,0.4-0.8,0.8-0.8
	c0.5,0,0.8,0.4,0.8,0.8s-0.4,0.8-0.8,0.8S98.6,40.2,98.6,39.8z M99.3,40.3h-0.2v-0.9h0.6c0.1,0,0.1,0.1,0.1,0.2s-0.1,0.2-0.2,0.2
	l0.2,0.4h-0.2l-0.1-0.4h-0.2C99.3,39.8,99.3,40.3,99.3,40.3z M99.3,39.7h0.2l0.1-0.1c0,0,0-0.1-0.1-0.1h-0.2
	C99.3,39.5,99.3,39.7,99.3,39.7z M101,51.2c0-0.6,0.5-1.1,1.1-1.1s1.1,0.5,1.1,1.1s-0.5,1.1-1.1,1.1S101,51.8,101,51.2z M102.1,52
	c0.4,0,0.8-0.4,0.8-0.8s-0.4-0.8-0.8-0.8s-0.8,0.4-0.8,0.8C101.3,51.7,101.6,52,102.1,52z M101.9,51.3h0.2l0.1,0.4h0.2l-0.2-0.4
	c0.1,0,0.2-0.1,0.2-0.2s-0.1-0.2-0.1-0.2h-0.6v0.9h0.2C101.9,51.8,101.9,51.3,101.9,51.3z M101.9,50.9h0.2l0.1,0.1
	c0,0,0,0.1-0.1,0.1h-0.2C101.9,51.1,101.9,50.9,101.9,50.9z"/>
</svg>
